<svg fill="#000000" xmlns="http://www.w3.org/2000/svg"  viewBox="0 0 50 50" width="50px" height="50px"><path fill="none" stroke="#000000" stroke-linecap="round" stroke-miterlimit="10" stroke-width="2" d="M9 49c-1.1 0-2-.9-2-2V23c0-1.1.9-2 2-2h32c1.1 0 2 .9 2 2v24c0 1.1-.9 2-2 2H9zM34.6 13.1c0 0-1.1-3.6-1.3-4.3-1.8-5.8-8-9.1-13.8-7.3-5.8 1.8-9.1 8-7.3 13.8C12.6 16.4 14 21 14 21"/><path d="M28,33c0-1.7-1.3-3-3-3c-1.7,0-3,1.3-3,3c0,0.9,0.4,1.7,1,2.2V38c0,1.1,0.9,2,2,2c1.1,0,2-0.9,2-2v-2.8C27.6,34.7,28,33.9,28,33z"/></svg>